# xmcd
#
# Track frame offsets:
#	150
#	22755
#	42670
#	63042
#	80134
#	99933
#	126877
#	147386
#	163717
#	183269
#	199190
#	219527
#	237560
#	265371
#	284472
#	298899
#	320595
#	337545
#
# Disc length: 4728 seconds
#
# Revision: 0
# Processed by: cddbd v1.5.1PL0 Copyright (c) Steve Scherf et al.
# Submitted via: audiograbber 1.82.02
#
DISCID=12127612
DTITLE=Various Artist - Hip Hop Generation CD1
DYEAR=2005
DGENRE=Hip-Hop
TTITLE0=Young Buck - Bitch Before My Dog
TTITLE1=Boo Yaa Tribe - Tell 'm Who Sent Yo Ass
TTITLE2=Redman ft. KFAM and Keith Murray - Rollin'
TTITLE3=The Notorious B.I.G. ft. Lil Cease and Lil Kim - Get Money (Remix)
TTITLE4=DAZ - Gonna Hurt Somebody
TTITLE5=LL Cool J - Jingling Baby
TTITLE6=Eazy E - L.A. Is The Place
TTITLE7=Snoop Dogg - Fine
TTITLE8=Gangster Blacc - Pretty, Ain't Nothing Nice
TTITLE9=N.W.A. - Panic Zone
TTITLE10=The Unknown DJ - Basstronic
TTITLE11=Criminal At Large - Loc It Up
TTITLE12=The Egyptian Lover - Freak-A-Holic
TTITLE13=Bobby Jimmy - Oooh My God!
TTITLE14=2 Live Crew ft. Spyder D. - This Is Just A Bonus
TTITLE15=World Class Wreckin' Crew ft. Dr. Dre - Surgery
TTITLE16=Xzibit and Big Hutch - Two Killaz
TTITLE17=Fila Fresh Crew - Out Of K's
EXTD=
EXTT0=
EXTT1=
EXTT2=
EXTT3=
EXTT4=
EXTT5=
EXTT6=
EXTT7=
EXTT8=
EXTT9=
EXTT10=
EXTT11=
EXTT12=
EXTT13=
EXTT14=
EXTT15=
EXTT16=
EXTT17=
PLAYORDER=
